<?xml version="1.0" encoding="utf-8"?>
<!-- Generator: Adobe Illustrator 17.0.2, SVG Export Plug-In . SVG Version: 6.00 Build 0)  -->
<!DOCTYPE svg PUBLIC "-//W3C//DTD SVG 1.1//EN" "http://www.w3.org/Graphics/SVG/1.1/DTD/svg11.dtd">
<svg version="1.1" id="Layer_1" xmlns="http://www.w3.org/2000/svg" xmlns:xlink="http://www.w3.org/1999/xlink" x="0px" y="0px"
	 width="616.809px" height="89px" viewBox="0 0 616.809 89" enable-background="new 0 0 616.809 89" xml:space="preserve">
<g>
	<g>
		<line fill="none" stroke="#256DFD" stroke-miterlimit="10" x1="617" y1="89" x2="0" y2="89"/>
		<line fill="none" stroke="#256DFD" stroke-miterlimit="10" x1="617" y1="87" x2="0" y2="87"/>
		<line fill="none" stroke="#256DFD" stroke-miterlimit="10" x1="617" y1="84" x2="0" y2="84"/>
		<line fill="none" stroke="#256DFD" stroke-miterlimit="10" x1="617" y1="82" x2="0" y2="82"/>
		<line fill="none" stroke="#256DFD" stroke-miterlimit="10" x1="617" y1="79" x2="0" y2="79"/>
		<line fill="none" stroke="#256DFD" stroke-miterlimit="10" x1="617" y1="77" x2="0" y2="77"/>
		<line fill="none" stroke="#256DFD" stroke-miterlimit="10" x1="617" y1="74" x2="0" y2="74"/>
		<line fill="none" stroke="#256DFD" stroke-miterlimit="10" x1="617" y1="72" x2="0" y2="72"/>
		<line fill="none" stroke="#256DFD" stroke-miterlimit="10" x1="617" y1="69" x2="0" y2="69"/>
		<line fill="none" stroke="#256DFD" stroke-miterlimit="10" x1="617" y1="67" x2="0" y2="67"/>
		<line fill="none" stroke="#256DFD" stroke-miterlimit="10" x1="617" y1="64" x2="0" y2="64"/>
		<line fill="none" stroke="#256DFD" stroke-miterlimit="10" x1="617" y1="62" x2="0" y2="62"/>
		<line fill="none" stroke="#256DFD" stroke-miterlimit="10" x1="617" y1="59" x2="0" y2="59"/>
		<line fill="none" stroke="#256DFD" stroke-miterlimit="10" x1="617" y1="57" x2="0" y2="57"/>
		<line fill="none" stroke="#256DFD" stroke-miterlimit="10" x1="617" y1="54" x2="0" y2="54"/>
		<line fill="none" stroke="#256DFD" stroke-miterlimit="10" x1="617" y1="52" x2="0" y2="52"/>
		<line fill="none" stroke="#256DFD" stroke-miterlimit="10" x1="617" y1="49" x2="0" y2="49"/>
		<line fill="none" stroke="#256DFD" stroke-miterlimit="10" x1="617" y1="47" x2="0" y2="47"/>
		<line fill="none" stroke="#256DFD" stroke-miterlimit="10" x1="617" y1="45" x2="0" y2="45"/>
		<line fill="none" stroke="#256DFD" stroke-miterlimit="10" x1="617" y1="42" x2="0" y2="42"/>
		<line fill="none" stroke="#256DFD" stroke-miterlimit="10" x1="617" y1="40" x2="0" y2="40"/>
		<line fill="none" stroke="#256DFD" stroke-miterlimit="10" x1="617" y1="37" x2="0" y2="37"/>
		<line fill="none" stroke="#256DFD" stroke-miterlimit="10" x1="617" y1="35" x2="0" y2="35"/>
		<line fill="none" stroke="#256DFD" stroke-miterlimit="10" x1="617" y1="32" x2="0" y2="32"/>
		<line fill="none" stroke="#256DFD" stroke-miterlimit="10" x1="617" y1="30" x2="0" y2="30"/>
		<line fill="none" stroke="#256DFD" stroke-miterlimit="10" x1="617" y1="27" x2="0" y2="27"/>
		<line fill="none" stroke="#256DFD" stroke-miterlimit="10" x1="617" y1="25" x2="0" y2="25"/>
		<line fill="none" stroke="#256DFD" stroke-miterlimit="10" x1="617" y1="22" x2="0" y2="22"/>
		<line fill="none" stroke="#256DFD" stroke-miterlimit="10" x1="617" y1="20" x2="0" y2="20"/>
		<line fill="none" stroke="#256DFD" stroke-miterlimit="10" x1="617" y1="17" x2="0" y2="17"/>
		<line fill="none" stroke="#256DFD" stroke-miterlimit="10" x1="617" y1="15" x2="0" y2="15"/>
		<line fill="none" stroke="#256DFD" stroke-miterlimit="10" x1="617" y1="12" x2="0" y2="12"/>
		<line fill="none" stroke="#256DFD" stroke-miterlimit="10" x1="617" y1="10" x2="0" y2="10"/>
		<line fill="none" stroke="#256DFD" stroke-miterlimit="10" x1="617" y1="7" x2="0" y2="7"/>
		<line fill="none" stroke="#256DFD" stroke-miterlimit="10" x1="617" y1="5" x2="0" y2="5"/>
		<line fill="none" stroke="#256DFD" stroke-miterlimit="10" x1="617" y1="2" x2="0" y2="2"/>
		<line fill="none" stroke="#256DFD" stroke-miterlimit="10" x1="617" y1="0" x2="0" y2="0"/>
	</g>
	<g>
		<path fill="#8C0000" d="M548.664,75.799c-0.682,0-1.363,0-2.245,0c0-1.495,0-2.999,0-4.7c-0.949,0-1.702,0-2.455,0
			c0-4.895,0-9.791,0-14.686c0.683,0,1.367,0,2.254,0c0-1.496,0-3.007,0-4.615c0.858,0,1.514,0,2.367,0
			c0.046-1.014,0.088-1.939,0.134-2.96c0.73-0.037,1.387-0.071,2.249-0.115c0-0.713,0-1.438,0-2.229
			c0.858-0.044,1.515-0.077,2.376-0.121c0-0.739,0-1.464,0-2.287c1.64,0,3.08,0,4.719,0c0-0.849,0-1.604,0-2.358
			c0.783,0,1.567,0,2.35,0c0.783,0,1.567,0,2.35,0c0,0.751,0,1.501,0,2.24c-0.916,0.099-1.642,0.177-2.448,0.263
			c0,0.801,0,1.451,0,2.094c-0.821,0.09-1.545,0.169-2.352,0.258c0,0.802,0,1.453,0,2.093c-0.824,0.089-1.546,0.166-2.148,0.231
			c0,1.034,0,1.884,0,2.707c0.823,0.088,1.545,0.165,2.249,0.24c0,0.854,0,1.533,0,2.212c0,0.783,0,1.567,0,2.35
			c-0.685,0-1.369,0-2.216,0c-0.072,0.714-0.145,1.446-0.228,2.278c-0.679,0-1.335,0-2.195,0c-0.036,0.826-0.068,1.56-0.103,2.355
			c-0.762,0.042-1.42,0.078-2.193,0.121c0,2.418,0,4.833,0,7.433c-0.817,0.087-1.54,0.165-2.465,0.264
			C548.664,71.156,548.664,73.478,548.664,75.799z"/>
		<path fill="#2D4ADC" d="M590.961,0.017c0,0.783,0,1.567,0,2.35c-1.512,0-3.024,0-4.7,0c0,0.859,0,1.605,0,2.35
			c0,1.567,0,3.133,0,4.7c-1.535,0-3.07,0-4.585,0c-0.102-0.917-0.183-1.643-0.273-2.448c-2.368,0-4.584,0-6.786,0
			c-0.092-0.822-0.173-1.547-0.252-2.252c-1.631,0-3.092,0-4.554,0c0-0.683,0-1.366,0-2.262c1.497-0.202,3.032-0.054,4.553-0.082
			c1.548-0.028,3.097-0.006,4.846-0.006c0-0.842,0-1.596,0-2.35C583.128,0.017,587.045,0.017,590.961,0.017z"/>
		<path d="M562.763,88.136c0-0.783,0-1.567,0-2.35c3.916,0,7.833,0,11.749,0c0.783,0,1.567,0,2.35,0c5.483,0,10.966,0,16.449,0
			c0,0.783,0,1.567,0,2.35C583.128,88.136,572.946,88.136,562.763,88.136z"/>
		<path d="M616.809,39.377c-1.567,0-3.133,0-4.7,0c-0.737,0-1.475,0-2.35,0c0-1.077,0-2.007,0-2.937c0.735,0,1.47,0,2.35,0
			c0-0.88,0-1.615,0-2.35c0-0.783,0-1.567,0-2.35s0-1.567,0-2.35c0.742,0,1.484,0,2.35,0c0-1.676,0-3.188,0-4.7
			c0.783,0,1.567,0,2.35,0c0,2.35,0,4.7,0,7.049c-0.753,0-1.506,0-2.367,0c0.061,1.705-0.071,3.214,0.09,4.7
			c0.914,0,1.595,0,2.277,0C616.809,37.419,616.809,38.398,616.809,39.377z"/>
		<path fill="#8F8F8F" d="M616.809,36.439c-0.682,0-1.363,0-2.277,0c-0.161-1.485-0.029-2.995-0.09-4.7c0.861,0,1.614,0,2.367,0
			C616.809,33.306,616.809,34.873,616.809,36.439z"/>
		<path fill="#6C6DFC" d="M616.809,24.69c-0.783,0-1.567,0-2.35,0c0-0.979,0-1.958,0-2.937c0.783,0,1.567,0,2.35,0
			C616.809,22.732,616.809,23.711,616.809,24.69z"/>
		<path fill="#2D4ADC" d="M616.809,21.753c-0.783,0-1.567,0-2.35,0c0-0.783,0-1.567,0-2.35c0.783,0,1.567,0,2.35,0
			C616.809,20.186,616.809,20.97,616.809,21.753z"/>
		<path fill="#2726B3" d="M576.862,34.09c0-0.683,0-1.366,0-2.253c-1.495,0-3.007,0-4.614,0c0-0.858,0-1.513,0-2.363
			c-3.947,0-7.801,0-11.744,0c0-0.849,0-1.504,0-2.337c0.646-0.051,1.377-0.108,2.195-0.172c0.038-0.712,0.074-1.369,0.12-2.232
			c0.713,0,1.438,0,2.263,0c0-1.055,0-1.906,0-2.868c0.752,0,1.405,0,2.223,0c0.091-0.816,0.172-1.541,0.274-2.461
			c1.508,0,3.045,0,4.583,0c0,0.754,0,1.508,0,2.236c-0.925,0.099-1.647,0.177-2.237,0.24c0,1.054,0,1.902,0,2.746
			c1.55,0,2.987,0,4.626,0c0-0.987,0-1.909,0-2.814c0.861-0.048,1.517-0.084,2.239-0.124c0.06-0.812,0.114-1.542,0.174-2.36
			c0.822,0,1.477,0,2.156,0c0.082-0.829,0.154-1.56,0.215-2.174c0.826,0,1.481,0,2.227,0c0,1.746-0.007,3.392,0.002,5.039
			c0.009,1.621-0.04,3.246,0.035,4.847c0.947,0,1.63,0,2.313,0c0,1.532,0,3.064,0,4.597c0.909,0.092,1.637,0.167,2.447,0.249
			c0,0.8,0,1.453,0,2.1c0.822,0.091,1.546,0.171,2.253,0.249c0,0.844,0,1.525,0,2.205c-3.916,0-7.833,0-11.749,0
			C576.862,35.656,576.862,34.873,576.862,34.09z"/>
		<path fill="#2726B3" d="M569.812,4.717c1.461,0,2.923,0,4.554,0c0.079,0.705,0.16,1.43,0.252,2.252c2.203,0,4.418,0,6.786,0
			c0.09,0.805,0.171,1.531,0.273,2.448c1.514,0,3.05,0,4.585,0c0,2.546,0,5.091,0,7.637c-0.752,0-1.504,0-2.447,0
			c0-1.698,0-3.206,0-4.602c-0.853,0-1.504,0-2.149,0c-0.091,0.822-0.171,1.547-0.249,2.252c-0.844,0-1.525,0-2.205,0
			c0-0.685,0-1.369,0-2.216c-0.714-0.071-1.446-0.145-2.277-0.228c0-0.871,0-1.726,0-2.785c-2.386,0-4.685,0-7.048,0
			c-0.048-0.858-0.085-1.516-0.134-2.379c-1.499,0-3.019,0-4.581,0c0-0.862,0-1.518,0-2.379
			C566.733,4.717,568.273,4.717,569.812,4.717z"/>
		<path fill="#2D4ADC" d="M579.212,14.703c0.68,0,1.36,0,2.205,0c0.078-0.705,0.158-1.43,0.249-2.252c0.645,0,1.295,0,2.149,0
			c0,1.396,0,2.904,0,4.602c0.943,0,1.695,0,2.447,0c0,0.783,0,1.567,0,2.35c-0.735,0-1.47,0-2.35,0c0,0.88,0,1.615,0,2.35
			c0,0.979,0,1.958,0,2.937c0,0.783,0,1.567,0,2.35c-0.683,0-1.366,0-2.313,0c-0.075-1.601-0.026-3.226-0.035-4.847
			c-0.009-1.646-0.002-3.293-0.002-5.039c-0.746,0-1.402,0-2.227,0c-0.061,0.614-0.133,1.345-0.215,2.174c-0.679,0-1.334,0-2.156,0
			c-0.06,0.818-0.114,1.548-0.174,2.36c-0.721,0.04-1.378,0.076-2.239,0.124c0,0.905,0,1.827,0,2.814c-1.639,0-3.076,0-4.626,0
			c0-0.845,0-1.692,0-2.746c0.59-0.063,1.313-0.141,2.237-0.24c0-0.728,0-1.482,0-2.236c0.735,0,1.47,0,2.35,0
			c0-0.88,0-1.615,0-2.35c0.68,0,1.361,0,2.205,0c0.078-0.707,0.158-1.431,0.26-2.35C577.708,14.703,578.46,14.703,579.212,14.703z"
			/>
		<path fill="#F4B38D" d="M562.763,36.439c1.567,0,3.133,0,4.7,0c1.567,0,3.133,0,4.7,0c0,0.979,0,1.958,0,2.937
			c-1.567,0-3.133,0-4.7,0c-0.783,0-1.567,0-2.35,0c-0.783,0-1.567,0-2.35,0C562.763,38.398,562.763,37.419,562.763,36.439z"/>
		<path fill="#2D4ADC" d="M572.162,36.439c-1.567,0-3.133,0-4.7,0c0-0.675,0-1.351,0-2.318c3.124-0.072,6.263-0.011,9.399-0.031
			c0,0.783,0,1.567,0,2.35C575.295,36.439,573.729,36.439,572.162,36.439z"/>
		<path fill="#AD6B45" d="M562.763,36.439c0,0.979,0,1.958,0,2.937c-0.783,0-1.567,0-2.35,0c0-0.93,0-1.86,0-2.937
			C561.288,36.439,562.026,36.439,562.763,36.439z"/>
		<path fill="#2726B3" d="M574.512,17.053c0,0.735,0,1.47,0,2.35c-0.88,0-1.615,0-2.35,0c0-0.735,0-1.47,0-2.35
			C573.042,17.053,573.777,17.053,574.512,17.053z"/>
		<path fill="#AD6B45" d="M560.413,41.727c-0.783,0-1.567,0-2.35,0c0-0.735,0-1.47,0-2.35c0.88,0,1.615,0,2.35,0
			C560.413,40.16,560.413,40.943,560.413,41.727z"/>
		<path fill="#8C0000" d="M593.311,85.786c-5.483,0-10.966,0-16.449,0c0-0.783,0-1.567,0-2.35c1.512,0,3.024,0,4.7,0
			c0-0.866,0-1.608,0-2.35c1.514,0,3.028,0,4.7,0c0-1.061,0-1.999,0-2.937c2.25,0,4.501,0,6.913,0
			c0.073-0.714,0.147-1.445,0.231-2.276c1.457,0,2.899,0,4.541,0c0.037-0.826,0.07-1.56,0.106-2.356
			c0.761-0.042,1.419-0.079,2.192-0.121c0-1.437,0-2.877,0-4.489c0.818-0.091,1.542-0.171,2.369-0.263c0-2.403,0-4.823,0-7.441
			c0.818-0.037,1.542-0.069,2.381-0.107c0,2.559,0,4.979,0,7.526c0.824,0,1.547,0,2.382,0c0-1.662,0-3.3,0-5.047
			c0.756,0,1.41,0,2.315,0c0.024-1.226,0.055-2.357,0.066-3.488c0.011-1.161,0.002-2.322,0.002-3.577c0.757,0,1.413,0,2.21,0
			c0,4.752,0,9.588,0,14.534c-0.642,0.032-1.3,0.065-2.165,0.109c0,1.49,0,3.008,0,4.582c-0.861,0.042-1.519,0.075-2.285,0.112
			c0,0.679,0,1.33,0,2.143c-0.819,0.091-1.547,0.172-2.377,0.265c0,0.849,0,1.704,0,2.726c-0.824,0.063-1.559,0.119-2.365,0.181
			c-0.041,0.72-0.078,1.378-0.122,2.156c-1.426,0-2.864,0-4.496,0c-0.085,0.818-0.16,1.54-0.257,2.469c-0.729,0-1.485,0-2.241,0
			c0-0.752,0-1.504,0-2.35c-0.57,0-0.947-0.019-1.32,0.006c-0.352,0.023-0.701,0.093-1.029,0.139
			C593.311,84.425,593.311,85.106,593.311,85.786z"/>
		<path fill="#8C0000" d="M574.512,85.786c-3.916,0-7.833,0-11.749,0c0-2.546,0-5.091,0-7.637c0.735,0,1.47,0,2.35,0
			c0-0.88,0-1.615,0-2.35s0-1.47,0-2.35c0.88,0,1.615,0,2.35,0c0,0.735,0,1.47,0,2.35c0.88,0,1.615,0,2.35,0c2.35,0,4.7,0,7.049,0
			c0,0.735,0,1.47,0,2.35c0.88,0,1.615,0,2.35,0c0.783,0,1.567,0,2.35,0c0,0.979,0,1.958,0,2.937c-1.512,0-3.024,0-4.7,0
			c0,0.866,0,1.608,0,2.35c-0.735,0-1.47,0-2.35,0C574.512,84.316,574.512,85.051,574.512,85.786z"/>
		<path fill="#F4B38D" d="M609.76,36.439c0,0.93,0,1.86,0,2.937c0.875,0,1.612,0,2.35,0c0,0.783,0,1.567,0,2.35
			c-0.783,0-1.567,0-2.35,0c-1.512,0-3.024,0-4.7,0c0,0.866,0,1.608,0,2.35c-3.916,0-7.833,0-11.749,0c0-0.735,0-1.47,0-2.35
			c-0.88,0-1.615,0-2.35,0c0-0.783,0-1.567,0-2.35c0-0.979,0-1.958,0-2.937c0.783,0,1.567,0,2.35,0c1.567,0,3.133,0,4.7,0
			c0,0.945,0,1.891,0,2.829c3.23,0,6.278,0,9.316,0c0.074-1.021,0.14-1.934,0.204-2.829
			C608.406,36.439,609.083,36.439,609.76,36.439z"/>
		<path fill="#484848" d="M588.611,51.713c-0.783,0-1.567,0-2.35,0c0-0.979,0-1.958,0-2.937c0-0.783,0-1.567,0-2.35
			c0.783,0,1.567,0,2.35,0c1.567,0,3.133,0,4.7,0c2.35,0,4.7,0,7.049,0c0,0.783,0,1.567,0,2.35c-0.753,0-1.506,0-2.258,0
			c-0.079,1.117-0.144,2.036-0.208,2.937c-1.662,0-3.123,0-4.584,0c0-0.95,0-1.901,0-2.962c-0.927,0.051-1.644,0.09-2.35,0.129
			c0,1.081,0,1.957,0,2.833C590.178,51.713,589.394,51.713,588.611,51.713z"/>
		<path fill="#2726B3" d="M576.862,71.099c0-0.735,0-1.47,0-2.35c0.88,0,1.615,0,2.35,0c0.743,0,1.486,0,2.35,0
			c0-1.874,0-3.581,0-5.287c0.783,0,1.567,0,2.35,0c0.747,0,1.493,0,2.293,0c0,1.795,0,3.412,0,5.197
			c-0.688,0.049-1.411,0.101-2.221,0.16c0,0.707,0,1.355,0,2.154c-0.8,0.072-1.523,0.136-2.422,0.217c0,0.766,0,1.513,0,2.259
			c-1.567,0-3.133,0-4.7,0C576.862,72.666,576.862,71.883,576.862,71.099z"/>
		<path fill="#AD6B45" d="M583.911,58.763c0,0.783,0,1.567,0,2.35c-0.783,0-1.567,0-2.35,0c-1.536,0-3.071,0-4.801,0
			c0-1.697,0-3.206,0-4.7c-0.884,0-1.566,0-2.249,0c0-0.783,0-1.567,0-2.35c2.35,0,4.7,0,7.049,0c0.783,0,1.567,0,2.35,0
			c0,0.783,0,1.567,0,2.35c-1.536,0-3.071,0-4.725,0c0.052,0.921,0.092,1.642,0.131,2.35
			C580.987,58.763,582.449,58.763,583.911,58.763z"/>
		<path fill="#8F8F8F" d="M593.311,51.713c1.461,0,2.922,0,4.584,0c0.064-0.902,0.129-1.821,0.208-2.937c0.751,0,1.504,0,2.258,0
			c0,1.712,0,3.424,0,5.222c-0.786,0-1.434,0-2.233,0c-0.067,0.799-0.128,1.522-0.202,2.415c-0.774,0-1.519,0-2.265,0
			c0-0.752,0-1.504,0-2.235c-0.92-0.102-1.644-0.182-2.35-0.26C593.311,53.074,593.311,52.394,593.311,51.713z"/>
		<path fill="#484848" d="M593.311,51.713c0,0.68,0,1.361,0,2.205c0.705,0.078,1.43,0.158,2.35,0.26c0,0.731,0,1.483,0,2.235
			c-1.512,0-3.024,0-4.7,0c0-0.866,0-1.608,0-2.35c0-0.783,0-1.567,0-2.35C591.744,51.713,592.528,51.713,593.311,51.713z"/>
		<path fill="#8F8F8F" d="M581.562,81.086c0-0.979,0-1.958,0-2.937c1.567,0,3.133,0,4.7,0c0,0.938,0,1.876,0,2.937
			C584.59,81.086,583.076,81.086,581.562,81.086z"/>
		<path fill="#8C0000" d="M609.76,44.076c0,0.742,0,1.484,0,2.35c-1.676,0-3.188,0-4.7,0c0-0.783,0-1.567,0-2.35
			C606.627,44.076,608.193,44.076,609.76,44.076z"/>
		<path fill="#8C0000" d="M600.36,48.776c0-0.783,0-1.567,0-2.35c1.567,0,3.133,0,4.7,0c0,0.742,0,1.484,0,2.35
			C603.384,48.776,601.872,48.776,600.36,48.776z"/>
		<path fill="#AFB3AF" d="M576.862,73.449c1.567,0,3.133,0,4.7,0c0,0.735,0,1.47,0,2.35c-0.88,0-1.615,0-2.35,0
			c-0.783,0-1.567,0-2.35,0C576.862,75.016,576.862,74.233,576.862,73.449z"/>
		<path fill="#AD6B45" d="M586.261,56.413c0,0.735,0,1.47,0,2.35c-0.88,0-1.615,0-2.35,0c0-0.783,0-1.567,0-2.35
			C584.695,56.413,585.478,56.413,586.261,56.413z"/>
		<path d="M593.311,85.786c0-0.68,0-1.361,0-2.206c0.328-0.046,0.677-0.115,1.029-0.139c0.374-0.025,0.75-0.006,1.32-0.006
			c0,0.846,0,1.598,0,2.35C594.877,85.786,594.094,85.786,593.311,85.786z"/>
		<path d="M581.562,61.113c0.783,0,1.567,0,2.35,0c0,0.783,0,1.567,0,2.35c-0.783,0-1.567,0-2.35,0
			C581.562,62.679,581.562,61.896,581.562,61.113z"/>
		<path fill="#8F8F8F" d="M576.862,75.799c0.783,0,1.567,0,2.35,0c0,0.783,0,1.567,0,2.35c-0.735,0-1.47,0-2.35,0
			C576.862,77.269,576.862,76.534,576.862,75.799z"/>
		<path fill="#8C0000" d="M609.76,41.727c0.783,0,1.567,0,2.35,0c0,0.735,0,1.47,0,2.35c-0.88,0-1.615,0-2.35,0
			C609.76,43.293,609.76,42.51,609.76,41.727z"/>
		<path fill="#AD6B45" d="M586.261,51.713c0,0.783,0,1.567,0,2.35c-0.783,0-1.567,0-2.35,0c0-0.783,0-1.567,0-2.35
			C584.695,51.713,585.478,51.713,586.261,51.713z"/>
		<path fill="#8F8F8F" d="M590.961,51.713c0,0.783,0,1.567,0,2.35c-0.735,0-1.47,0-2.35,0c0-0.88,0-1.615,0-2.35
			C589.394,51.713,590.178,51.713,590.961,51.713z"/>
		<path fill="#F4B38D" d="M583.911,54.063c0.783,0,1.567,0,2.35,0c0,0.783,0,1.567,0,2.35c-0.783,0-1.567,0-2.35,0
			C583.911,55.63,583.911,54.846,583.911,54.063z"/>
		<path fill="#2D4ADC" d="M581.562,61.113c0,0.783,0,1.567,0,2.35c-1.567,0-3.133,0-4.7,0c-1.461,0-2.921,0-4.556,0
			c-0.078-0.703-0.157-1.427-0.259-2.35c-0.728,0-1.481,0-2.234,0c0-0.735,0-1.47,0-2.35c-0.88,0-1.615,0-2.35,0
			c0-1.567,0-3.133,0-4.7c1.567,0,3.133,0,4.7,0c0,0.735,0,1.47,0,2.35c0.88,0,1.615,0,2.35,0c0.682,0,1.365,0,2.249,0
			c0,1.493,0,3.003,0,4.7C578.49,61.113,580.026,61.113,581.562,61.113z"/>
		<path d="M567.463,54.063c0,1.567,0,3.133,0,4.7c-0.682,0-1.365,0-2.206,0c-0.077-0.71-0.155-1.438-0.254-2.35
			c-2.308,0-4.624,0-6.939,0c0-0.783,0-1.567,0-2.35C561.196,54.063,564.33,54.063,567.463,54.063z"/>
		<path fill="#484848" d="M569.812,75.799c-0.735,0-1.47,0-2.35,0c0-0.88,0-1.615,0-2.35c0-1.512,0-3.024,0-4.7
			c0.866,0,1.608,0,2.35,0c0,0.735,0,1.47,0,2.35c0.88,0,1.615,0,2.35,0c0,0.752,0,1.504,0,2.235c-0.92,0.102-1.644,0.182-2.35,0.26
			C569.812,74.439,569.812,75.119,569.812,75.799z"/>
		<path d="M576.862,63.463c1.567,0,3.133,0,4.7,0c0,1.707,0,3.413,0,5.287c-0.864,0-1.607,0-2.35,0c0-0.681,0-1.361,0-2.204
			c-0.706-0.078-1.432-0.159-2.35-0.26C576.862,65.363,576.862,64.413,576.862,63.463z"/>
		<path d="M562.763,78.149c0,2.546,0,5.091,0,7.637c-0.682,0-1.365,0-2.338,0c-0.004-1.215-0.01-2.443-0.012-3.672
			c-0.002-1.255,0-2.511,0-3.965C561.255,78.149,562.009,78.149,562.763,78.149z"/>
		<path d="M567.463,58.763c0.735,0,1.47,0,2.35,0c0,0.88,0,1.615,0,2.35c-0.735,0-1.47,0-2.35,0
			C567.463,60.233,567.463,59.498,567.463,58.763z"/>
		<path fill="#8F8F8F" d="M572.162,71.099c-0.735,0-1.47,0-2.35,0c0-0.88,0-1.615,0-2.35c0.783,0,1.567,0,2.35,0
			C572.162,69.533,572.162,70.316,572.162,71.099z"/>
		<path fill="#AFB3AF" d="M572.162,71.099c0-0.783,0-1.567,0-2.35c0.735,0,1.47,0,2.35,0c0,0.88,0,1.615,0,2.35
			C573.729,71.099,572.946,71.099,572.162,71.099z"/>
		<path fill="#AFB3AF" d="M576.862,71.099c0,0.783,0,1.567,0,2.35c-0.735,0-1.47,0-2.35,0c0-0.88,0-1.615,0-2.35
			C575.295,71.099,576.079,71.099,576.862,71.099z"/>
		<path fill="#8C0000" d="M548.748,75.883c0.662,0,1.407,0,2.203,0c0,0.728,0,1.373,0,2.142c-0.692,0-1.405,0-2.203,0
			C548.748,77.283,548.748,76.542,548.748,75.883z"/>
		<path d="M565.113,75.799c0,0.735,0,1.47,0,2.35c-0.88,0-1.615,0-2.35,0c0-0.735,0-1.47,0-2.35
			C563.643,75.799,564.378,75.799,565.113,75.799z"/>
		<path fill="#F20100" d="M567.463,54.063c-3.133,0-6.266,0-9.399,0c0-0.679,0-1.357,0-2.212c-0.703-0.075-1.426-0.152-2.249-0.24
			c0-0.823,0-1.673,0-2.707c0.602-0.065,1.324-0.142,2.148-0.231c0-0.64,0-1.291,0-2.093c0.807-0.088,1.532-0.168,2.352-0.258
			c0-0.643,0-1.292,0-2.094c0.806-0.087,1.532-0.165,2.448-0.263c0-0.739,0-1.489,0-2.24c0.783,0,1.567,0,2.35,0
			c0.735,0,1.47,0,2.35,0c0-0.88,0-1.615,0-2.35c1.567,0,3.133,0,4.7,0c1.514,0,3.028,0,4.7,0c0-1.061,0-1.999,0-2.937
			c3.916,0,7.833,0,11.749,0c0.783,0,1.567,0,2.35,0c0,0.979,0,1.958,0,2.937c-0.742,0-1.484,0-2.35,0c0,1.676,0,3.188,0,4.7
			c-0.735,0-1.47,0-2.35,0c0,0.88,0,1.615,0,2.35c-1.512,0-3.024,0-4.7,0c0,0.866,0,1.608,0,2.35c-2.293,0-4.586,0-7.049,0
			c0,1.054,0,1.996,0,2.937c-2.291,0-4.583,0-7.049,0C567.463,52.572,567.463,53.318,567.463,54.063z"/>
		<path fill="#F4B38D" d="M560.413,41.727c0-0.783,0-1.567,0-2.35c0.783,0,1.567,0,2.35,0c0,0.783,0,1.567,0,2.35
			C561.98,41.727,561.196,41.727,560.413,41.727z"/>
		<path fill="#2726B3" d="M609.76,9.416c0-0.682,0-1.363,0-2.205c0.708-0.078,1.435-0.157,2.261-0.248c0-0.654,0-1.307,0-2.106
			c0.82,0,1.543,0,2.439,0c0,3.268,0,6.557,0,9.845c-0.783,0-1.567,0-2.35,0c0-0.735,0-1.47,0-2.35c-0.88,0-1.615,0-2.35,0
			C609.76,11.375,609.76,10.395,609.76,9.416z"/>
		<path fill="#2D4ADC" d="M590.961,2.367c2.291,0,4.583,0,7.049,0c0,0.859,0,1.604,0,2.35c-2.35,0-4.7,0-7.049,0
			C590.961,3.933,590.961,3.15,590.961,2.367z"/>
		<path fill="#2D4ADC" d="M598.01,4.717c1.512,0,3.024,0,4.7,0c0,0.866,0,1.608,0,2.35c-1.512,0-3.024,0-4.7,0
			C598.01,6.207,598.01,5.462,598.01,4.717z"/>
		<path fill="#2D4ADC" d="M612.109,14.703c0.783,0,1.567,0,2.35,0c0,1.567,0,3.133,0,4.7c-0.742,0-1.484,0-2.35,0
			C612.109,17.728,612.109,16.215,612.109,14.703z"/>
		<path fill="#2D4ADC" d="M602.71,7.067c1.512,0,3.024,0,4.7,0c0,0.866,0,1.608,0,2.35c-1.512,0-3.024,0-4.7,0
			C602.71,8.557,602.71,7.812,602.71,7.067z"/>
		<path fill="#2D4ADC" d="M609.76,9.416c0,0.979,0,1.958,0,2.937c-0.737,0-1.475,0-2.35,0c0-1.077,0-2.007,0-2.937
			C608.193,9.416,608.976,9.416,609.76,9.416z"/>
		<path fill="#2726B3" d="M586.261,9.416c0-1.567,0-3.133,0-4.7c1.567,0,3.133,0,4.7,0c0,0.783,0,1.567,0,2.35
			c-0.735,0-1.47,0-2.35,0c0,0.88,0,1.615,0,2.35C587.828,9.416,587.045,9.416,586.261,9.416z"/>
		<path fill="#4E4AFC" d="M590.961,4.717c-1.567,0-3.133,0-4.7,0c0-0.745,0-1.491,0-2.35c1.676,0,3.188,0,4.7,0
			C590.961,3.15,590.961,3.933,590.961,4.717z"/>
		<path fill="#8F8F8F" d="M574.512,85.786c0-0.735,0-1.47,0-2.35c0.88,0,1.615,0,2.35,0c0,0.783,0,1.567,0,2.35
			C576.079,85.786,575.295,85.786,574.512,85.786z"/>
		<path fill="#4E4AFC" d="M590.961,7.067c0-0.783,0-1.567,0-2.35c2.35,0,4.7,0,7.049,0c0,0.745,0,1.491,0,2.35
			c1.676,0,3.188,0,4.7,0c0,0.745,0,1.491,0,2.35c1.676,0,3.188,0,4.7,0c0,0.93,0,1.86,0,2.937c0.875,0,1.612,0,2.35,0
			c0,0.735,0,1.47,0,2.35c0.88,0,1.615,0,2.35,0c0,1.512,0,3.024,0,4.7c0.866,0,1.608,0,2.35,0c0,0.783,0,1.567,0,2.35
			c0,0.979,0,1.958,0,2.937c0,1.512,0,3.024,0,4.7c-0.866,0-1.608,0-2.35,0c0-0.735,0-1.47,0-2.35c-0.88,0-1.615,0-2.35,0
			c0-2.507,0-5.013,0-7.544c-0.898-0.082-1.627-0.149-2.433-0.223c0-1.589,0-3.025,0-4.48c-0.819-0.079-1.548-0.15-2.36-0.228
			c0-0.808,0-1.459,0-2.307c-1.603,0-3.11,0-4.703,0c0-1.05,0-1.904,0-2.86c-0.825,0.045-1.545,0.085-2.253,0.124
			c0,1.081,0,1.957,0,2.832c-0.783,0-1.567,0-2.35,0c0-0.93,0-1.86,0-2.937c-0.87,0-1.61,0-2.35,0c0-0.735,0-1.47,0-2.35
			C592.431,7.067,591.696,7.067,590.961,7.067z"/>
		<path fill="#8F8F8F" d="M612.109,34.09c0,0.735,0,1.47,0,2.35c-0.88,0-1.615,0-2.35,0c0-0.783,0-1.567,0-2.35
			C610.543,34.09,611.326,34.09,612.109,34.09z"/>
		<path fill="#F7FBF7" d="M612.109,34.09c-0.783,0-1.567,0-2.35,0c0-0.783,0-1.567,0-2.35c0.783,0,1.567,0,2.35,0
			C612.109,32.523,612.109,33.306,612.109,34.09z"/>
		<path fill="#6C6DFC" d="M612.109,31.74c-0.783,0-1.567,0-2.35,0c0-0.783,0-1.567,0-2.35c0.783,0,1.567,0,2.35,0
			C612.109,30.173,612.109,30.956,612.109,31.74z"/>
		<path fill="#2D4ADC" d="M590.961,36.439c-0.783,0-1.567,0-2.35,0c0-0.68,0-1.361,0-2.205c-0.707-0.078-1.431-0.158-2.253-0.249
			c0-0.646,0-1.3,0-2.1c-0.81-0.082-1.538-0.157-2.447-0.249c0-1.533,0-3.065,0-4.597c0.783,0,1.567,0,2.35,0
			c0,0.745,0,1.49,0,2.267c0.893,0.072,1.614,0.131,2.411,0.195c0,0.801,0,1.448,0,2.237c1.603,0,3.121,0,4.639,0
			c0,0.783,0,1.567,0,2.35c-0.735,0-1.47,0-2.35,0C590.961,34.969,590.961,35.704,590.961,36.439z"/>
		<path fill="#AD6B45" d="M586.261,9.416c0.783,0,1.567,0,2.35,0c0,1.707,0,3.413,0,5.287c0.864,0,1.607,0,2.35,0
			c0,0.742,0,1.484,0,2.35c-1.676,0-3.188,0-4.7,0C586.261,14.508,586.261,11.962,586.261,9.416z"/>
		<path fill="#4E4AFC" d="M586.261,17.053c1.512,0,3.024,0,4.7,0c0-0.866,0-1.608,0-2.35c1.567,0,3.133,0,4.7,0
			c0,0.755,0,1.509,0,2.238c-0.928,0.098-1.65,0.175-2.35,0.249c0,4.98,0,9.764,0,14.549c-1.518,0-3.036,0-4.639,0
			c0-0.789,0-1.436,0-2.237c-0.797-0.065-1.518-0.123-2.411-0.195c0-0.777,0-1.522,0-2.267c1.537,0,3.075,0,4.7,0
			c0-1.452,0.023-2.709-0.006-3.965c-0.028-1.228,0.144-2.477-0.13-3.672c-1.635,0-3.099,0-4.563,0
			C586.261,18.62,586.261,17.837,586.261,17.053z"/>
		<path fill="#6C6DFC" d="M583.911,24.69c0-0.979,0-1.958,0-2.937c0.783,0,1.567,0,2.35,0c0,0.979,0,1.958,0,2.937
			C585.478,24.69,584.695,24.69,583.911,24.69z"/>
		<path fill="#4E4AFC" d="M586.261,21.753c-0.783,0-1.567,0-2.35,0c0-0.735,0-1.47,0-2.35c0.88,0,1.615,0,2.35,0
			C586.261,20.186,586.261,20.97,586.261,21.753z"/>
		<path fill="#4E4AFC" d="M583.911,24.69c0.783,0,1.567,0,2.35,0c0,0.783,0,1.567,0,2.35c-0.783,0-1.567,0-2.35,0
			C583.911,26.257,583.911,25.474,583.911,24.69z"/>
		<path fill="#2726B3" d="M576.862,36.439c0,0.938,0,1.876,0,2.937c-1.671,0-3.185,0-4.7,0c0-0.979,0-1.958,0-2.937
			C573.729,36.439,575.295,36.439,576.862,36.439z"/>
		<path fill="#8C0000" d="M567.463,39.377c0,0.735,0,1.47,0,2.35c-0.88,0-1.615,0-2.35,0c0-0.783,0-1.567,0-2.35
			C565.896,39.377,566.679,39.377,567.463,39.377z"/>
		<path fill="#AD6B45" d="M565.113,39.377c0,0.783,0,1.567,0,2.35c-0.783,0-1.567,0-2.35,0c0-0.783,0-1.567,0-2.35
			C563.546,39.377,564.33,39.377,565.113,39.377z"/>
		<path fill="#8F8F8F" d="M576.862,83.436c0-0.742,0-1.484,0-2.35c1.676,0,3.188,0,4.7,0c0,0.742,0,1.484,0,2.35
			C579.886,83.436,578.374,83.436,576.862,83.436z"/>
		<path fill="#8F8F8F" d="M574.512,71.099c0,0.735,0,1.47,0,2.35c0.88,0,1.615,0,2.35,0c0,0.783,0,1.567,0,2.35
			c-2.35,0-4.7,0-7.049,0c0-0.68,0-1.361,0-2.205c0.705-0.078,1.43-0.158,2.35-0.26c0-0.731,0-1.483,0-2.235
			C572.946,71.099,573.729,71.099,574.512,71.099z"/>
		<path fill="#F7FBF7" d="M609.76,34.09c0,0.783,0,1.567,0,2.35c-0.677,0-1.353,0-2.229,0c-0.065,0.894-0.13,1.808-0.204,2.829
			c-3.038,0-6.086,0-9.316,0c0-0.938,0-1.883,0-2.829c0.752,0,1.504,0,2.374,0c-0.05-0.923-0.089-1.643-0.128-2.35
			c-0.886,0-1.566,0-2.246,0c0-0.735,0-1.47,0-2.35c-0.88,0-1.615,0-2.35,0c0-2.35,0-4.7,0-7.049c0.737,0,1.475,0,2.35,0
			c0-1.077,0-2.007,0-2.937c1.567,0,3.133,0,4.7,0c0,0.93,0,1.86,0,2.937c0.87,0,1.61,0,2.35,0c0,3.078,0,6.156,0,9.399
			C606.707,34.09,608.233,34.09,609.76,34.09z"/>
		<path fill="#AD6B45" d="M605.06,46.426c-1.567,0-3.133,0-4.7,0c-2.35,0-4.7,0-7.049,0c0-0.783,0-1.567,0-2.35
			c3.916,0,7.833,0,11.749,0C605.06,44.86,605.06,45.643,605.06,46.426z"/>
		<path fill="#AD6B45" d="M609.76,41.727c0,0.783,0,1.567,0,2.35c-1.567,0-3.133,0-4.7,0c0-0.742,0-1.484,0-2.35
			C606.736,41.727,608.248,41.727,609.76,41.727z"/>
		<path d="M588.611,44.076c0-1.512,0-3.024,0-4.7c0.866,0,1.608,0,2.35,0c0,0.783,0,1.567,0,2.35s0,1.567,0,2.35
			C590.178,44.076,589.394,44.076,588.611,44.076z"/>
		<path fill="#F7FBF7" d="M598.01,36.439c-1.567,0-3.133,0-4.7,0c0-0.783,0-1.567,0-2.35c0.783,0,1.567,0,2.35,0
			c0.783,0,1.567,0,2.35,0C598.01,34.873,598.01,35.656,598.01,36.439z"/>
		<path fill="#AD6B45" d="M590.961,44.076c0-0.783,0-1.567,0-2.35c0.735,0,1.47,0,2.35,0c0,0.88,0,1.615,0,2.35
			C592.528,44.076,591.744,44.076,590.961,44.076z"/>
		<path fill="#AD6B45" d="M593.311,34.09c0,0.783,0,1.567,0,2.35c-0.783,0-1.567,0-2.35,0c0-0.735,0-1.47,0-2.35
			C591.841,34.09,592.576,34.09,593.311,34.09z"/>
		<path fill="#8C0000" d="M590.961,44.076c0.783,0,1.567,0,2.35,0c0,0.783,0,1.567,0,2.35c-1.567,0-3.133,0-4.7,0
			c0-0.783,0-1.567,0-2.35C589.394,44.076,590.178,44.076,590.961,44.076z"/>
		<path d="M581.562,48.776c0-0.742,0-1.484,0-2.35c1.676,0,3.188,0,4.7,0c0,0.783,0,1.567,0,2.35c-0.783,0-1.567,0-2.35,0
			S582.345,48.776,581.562,48.776z"/>
		<path fill="#8F8F8F" d="M583.911,48.776c0.783,0,1.567,0,2.35,0c0,0.979,0,1.958,0,2.937c-0.783,0-1.567,0-2.35,0
			C583.911,50.734,583.911,49.755,583.911,48.776z"/>
		<path fill="#8F8F8F" d="M593.311,51.713c-0.783,0-1.567,0-2.35,0c0-0.876,0-1.751,0-2.833c0.705-0.039,1.423-0.078,2.35-0.129
			C593.311,49.812,593.311,50.763,593.311,51.713z"/>
		<path d="M588.611,44.076c0,0.783,0,1.567,0,2.35c-0.783,0-1.567,0-2.35,0c0-0.735,0-1.47,0-2.35
			C587.141,44.076,587.876,44.076,588.611,44.076z"/>
		<path fill="#AFB3AF" d="M581.562,54.063c-2.35,0-4.7,0-7.049,0c0-0.783,0-1.567,0-2.35c2.35,0,4.7,0,7.049,0
			C581.562,52.497,581.562,53.28,581.562,54.063z"/>
		<path fill="#F4B38D" d="M583.911,56.413c0,0.783,0,1.567,0,2.35c-1.462,0-2.924,0-4.593,0c-0.04-0.708-0.08-1.428-0.131-2.35
			C580.84,56.413,582.376,56.413,583.911,56.413z"/>
		<path fill="#8F8F8F" d="M581.562,54.063c0-0.783,0-1.567,0-2.35c0.783,0,1.567,0,2.35,0c0,0.783,0,1.567,0,2.35
			C583.128,54.063,582.345,54.063,581.562,54.063z"/>
		<path fill="#2726B3" d="M574.512,56.413c-0.735,0-1.47,0-2.35,0c0-0.88,0-1.615,0-2.35c0.783,0,1.567,0,2.35,0
			C574.512,54.846,574.512,55.63,574.512,56.413z"/>
		<path d="M574.512,54.063c-0.783,0-1.567,0-2.35,0c-1.567,0-3.133,0-4.7,0c0-0.746,0-1.491,0-2.35c2.467,0,4.758,0,7.049,0
			C574.512,52.497,574.512,53.28,574.512,54.063z"/>
		<path d="M581.562,51.713c-2.35,0-4.7,0-7.049,0c0-0.941,0-1.883,0-2.937c2.463,0,4.756,0,7.049,0
			C581.562,49.755,581.562,50.734,581.562,51.713z"/>
		<path fill="#2D4ADC" d="M612.109,14.703c-0.735,0-1.47,0-2.35,0c0-0.88,0-1.615,0-2.35c0.735,0,1.47,0,2.35,0
			C612.109,13.233,612.109,13.968,612.109,14.703z"/>
		<path fill="#F4B38D" d="M595.661,14.703c-1.567,0-3.133,0-4.7,0c-0.743,0-1.486,0-2.35,0c0-1.874,0-3.581,0-5.287
			c0-0.735,0-1.47,0-2.35c0.88,0,1.615,0,2.35,0c0,0.735,0,1.47,0,2.35c0.88,0,1.615,0,2.35,0c0,0.93,0,1.86,0,2.937
			c0.87,0,1.61,0,2.35,0C595.661,13.137,595.661,13.92,595.661,14.703z"/>
		<path fill="#6C6DFC" d="M595.661,24.69c0,2.35,0,4.7,0,7.049c-0.783,0-1.567,0-2.35,0c0-4.785,0-9.57,0-14.549
			c0.7-0.074,1.422-0.151,2.35-0.249c0-0.729,0-1.483,0-2.238c0.735,0,1.47,0,2.35,0c0-0.88,0-1.615,0-2.35c0-0.875,0-1.751,0-2.832
			c0.707-0.039,1.427-0.079,2.253-0.124c0,0.957,0,1.81,0,2.86c1.593,0,3.1,0,4.703,0c0,0.848,0,1.5,0,2.307
			c0.812,0.079,1.541,0.149,2.36,0.228c0,1.455,0,2.891,0,4.48c0.807,0.074,1.536,0.141,2.433,0.223c0,2.531,0,5.038,0,7.544
			c-0.752,0-1.504,0-2.235,0c-0.102-0.92-0.182-1.644-0.26-2.35c-0.844,0-1.525,0-2.205,0c0-0.93,0-1.86,0-2.937
			c-0.87,0-1.61,0-2.35,0c0-0.753,0-1.506,0-2.367c-1.705,0.061-3.214-0.071-4.7,0.09c0,0.914,0,1.595,0,2.277
			c-0.737,0-1.475,0-2.35,0C595.661,22.83,595.661,23.76,595.661,24.69z"/>
		<path fill="#2726B3" d="M595.661,12.354c-0.74,0-1.48,0-2.35,0c0-1.078,0-2.007,0-2.937c0.74,0,1.48,0,2.35,0
			C595.661,10.494,595.661,11.424,595.661,12.354z"/>
		<path fill="#2D4ADC" d="M598.01,12.354c0,0.735,0,1.47,0,2.35c-0.88,0-1.615,0-2.35,0c0-0.783,0-1.567,0-2.35
			C596.444,12.354,597.227,12.354,598.01,12.354z"/>
		<path fill="#2726B3" d="M593.311,9.416c-0.735,0-1.47,0-2.35,0c0-0.88,0-1.615,0-2.35c0.735,0,1.47,0,2.35,0
			C593.311,7.946,593.311,8.681,593.311,9.416z"/>
		<path fill="#2D4ADC" d="M612.109,29.39c-0.783,0-1.567,0-2.35,0c0-0.783,0-1.567,0-2.35c0.735,0,1.47,0,2.35,0
			C612.109,27.92,612.109,28.655,612.109,29.39z"/>
		<path d="M609.76,27.04c0,0.783,0,1.567,0,2.35c0,0.783,0,1.567,0,2.35s0,1.567,0,2.35c-1.526,0-3.053,0-4.7,0
			c0-3.243,0-6.321,0-9.399c0.68,0,1.361,0,2.205,0c0.078,0.705,0.158,1.43,0.26,2.35C608.256,27.04,609.008,27.04,609.76,27.04z"/>
		<path fill="#4E4AFC" d="M593.311,31.74c0.783,0,1.567,0,2.35,0c0,0.783,0,1.567,0,2.35c-0.783,0-1.567,0-2.35,0
			C593.311,33.306,593.311,32.523,593.311,31.74z"/>
		<path fill="#6C6DFC" d="M586.261,27.04c0-0.783,0-1.567,0-2.35c0.752,0,1.504,0,2.375,0c-0.05-1.12-0.091-2.034-0.132-2.937
			c-0.882,0-1.563,0-2.244,0c0-0.783,0-1.567,0-2.35c1.464,0,2.928,0,4.563,0c0.274,1.195,0.102,2.444,0.13,3.672
			c0.029,1.256,0.006,2.513,0.006,3.965C589.336,27.04,587.799,27.04,586.261,27.04z"/>
		<path fill="#8F8F8F" d="M586.261,21.753c0.681,0,1.361,0,2.244,0c0.041,0.903,0.081,1.817,0.132,2.937c-0.871,0-1.623,0-2.375,0
			C586.261,23.711,586.261,22.732,586.261,21.753z"/>
		<path fill="#AFB3AF" d="M598.01,21.753c0-0.682,0-1.363,0-2.277c1.485-0.161,2.995-0.029,4.7-0.09c0,0.861,0,1.614,0,2.367
			C601.144,21.753,599.577,21.753,598.01,21.753z"/>
		<path fill="#AFB3AF" d="M602.71,21.753c0.74,0,1.48,0,2.35,0c0,1.078,0,2.007,0,2.937c-0.74,0-1.48,0-2.35,0
			C602.71,23.613,602.71,22.683,602.71,21.753z"/>
		<path fill="#AFB3AF" d="M595.661,24.69c0-0.93,0-1.86,0-2.937c0.875,0,1.612,0,2.35,0c0,0.93,0,1.86,0,2.937
			C597.135,24.69,596.398,24.69,595.661,24.69z"/>
		<path fill="#6C6DFC" d="M598.01,36.439c0-0.783,0-1.567,0-2.35c0.68,0,1.361,0,2.246,0c0.038,0.707,0.078,1.427,0.128,2.35
			C599.514,36.439,598.762,36.439,598.01,36.439z"/>
		<path fill="#6C6DFC" d="M595.661,34.09c0-0.783,0-1.567,0-2.35c0.735,0,1.47,0,2.35,0c0,0.88,0,1.615,0,2.35
			C597.227,34.09,596.444,34.09,595.661,34.09z"/>
		<path fill="#AFB3AF" d="M581.562,51.713c0-0.979,0-1.958,0-2.937c0.783,0,1.567,0,2.35,0c0,0.979,0,1.958,0,2.937
			C583.128,51.713,582.345,51.713,581.562,51.713z"/>
	</g>
</g>
<g>
	<path fill="#256DFD" d="M115.43,73.011h30.885l-18.903-52.467c-0.149-0.496-0.596-0.942-1.34-1.34
		c-0.744-0.396-1.464-0.595-2.158-0.595c-0.794,0-1.526,0.199-2.195,0.595c-0.67,0.398-1.079,0.844-1.228,1.34L98.982,81.719h-9.898
		l22.997-64.896c0.346-1.042,0.843-2.046,1.488-3.014c0.644-0.967,1.451-1.835,2.419-2.604c0.967-0.769,2.108-1.377,3.423-1.824
		c1.314-0.446,2.815-0.669,4.502-0.669c1.686,0,3.174,0.223,4.465,0.669c1.29,0.447,2.418,1.055,3.386,1.824
		c0.967,0.77,1.773,1.637,2.418,2.604c0.645,0.968,1.166,1.972,1.563,3.014l22.997,64.896H115.43V73.011z M115.43,70.332v-2.828
		l-4.763,14.215h-9.005l20.466-59.314c0.099-0.297,0.335-0.558,0.707-0.781s0.731-0.335,1.079-0.335
		c0.347,0,0.719,0.112,1.116,0.335c0.396,0.223,0.645,0.484,0.744,0.781l16.968,47.928H115.43z M123.914,42.722l-5.954,18.754
		h12.131L123.914,42.722z"/>
	<path fill="#256DFD" d="M190.745,41.382l10.642,28.504c0.198,0.497,0.62,0.943,1.265,1.339c0.645,0.398,1.364,0.596,2.158,0.596
		c0.694,0,1.414-0.198,2.158-0.596c0.744-0.396,1.191-0.843,1.34-1.339l21.434-61.175h9.898l-22.997,64.896
		c-0.397,1.042-0.918,2.046-1.562,3.014c-0.646,0.968-1.451,1.836-2.419,2.605c-0.967,0.77-2.097,1.377-3.386,1.823
		c-1.291,0.447-2.779,0.67-4.465,0.67c-1.687,0-3.151-0.223-4.391-0.67c-1.241-0.446-2.333-1.053-3.275-1.823
		c-0.943-0.769-1.749-1.637-2.418-2.605c-0.67-0.967-1.253-1.972-1.749-3.014l-2.232-4.465l-2.233,4.465
		c-0.546,1.042-1.153,2.046-1.823,3.014c-0.67,0.968-1.464,1.836-2.381,2.605c-0.919,0.77-1.998,1.377-3.238,1.823
		c-1.241,0.447-2.705,0.67-4.391,0.67c-1.637,0-3.114-0.223-4.428-0.67c-1.315-0.446-2.456-1.053-3.423-1.823
		c-0.967-0.769-1.786-1.637-2.456-2.605c-0.67-0.967-1.179-1.972-1.525-3.014L141.849,8.711h9.898l21.434,61.175
		c0.149,0.497,0.596,0.943,1.34,1.339c0.744,0.398,1.463,0.596,2.158,0.596c0.793,0,1.513-0.198,2.158-0.596
		c0.644-0.396,1.066-0.843,1.265-1.339L190.745,41.382z M190.745,8.711l14.065,37.508l12.354-37.508h9.898l-20.392,59.314
		c-0.1,0.298-0.348,0.559-0.745,0.782c-0.397,0.223-0.77,0.335-1.116,0.335c-0.348,0-0.707-0.112-1.079-0.335
		s-0.608-0.484-0.707-0.782l-12.279-33.862l-12.28,33.862c-0.1,0.298-0.335,0.559-0.707,0.782s-0.732,0.335-1.079,0.335
		c-0.348,0-0.72-0.112-1.116-0.335c-0.398-0.223-0.646-0.484-0.745-0.782L154.426,8.711h9.526l12.726,37.508L190.745,8.711z"/>
	<path fill="#256DFD" d="M234.876,31.186c0-3.125,0.57-6.065,1.712-8.819c1.141-2.753,2.666-5.135,4.577-7.145
		c1.91-2.009,4.118-3.597,6.624-4.763c2.505-1.165,5.098-1.749,7.777-1.749h28.206v9.898h-27.015c-1.886,0-3.572,0.372-5.061,1.116
		s-2.742,1.712-3.758,2.903c-1.018,1.19-1.799,2.543-2.344,4.056c-0.546,1.514-0.819,3.014-0.819,4.502v28.057
		c0,1.489,0.272,2.99,0.819,4.502c0.545,1.514,1.327,2.866,2.344,4.056c1.016,1.191,2.27,2.158,3.758,2.902
		c1.488,0.745,3.175,1.117,5.061,1.117h27.015v9.898h-28.206c-2.679,0-5.272-0.583-7.777-1.749
		c-2.506-1.165-4.714-2.753-6.624-4.763c-1.911-2.01-3.436-4.391-4.577-7.145c-1.142-2.754-1.712-5.693-1.712-8.819V31.186z
		 M247.454,43.987V32.675c0-1.29,0.21-2.617,0.633-3.982c0.421-1.364,1.054-2.592,1.897-3.684c0.843-1.091,1.91-1.984,3.2-2.679
		c1.29-0.694,2.803-1.042,4.54-1.042h26.047v9.898h-25.824c-0.298,0-0.608,0.175-0.93,0.521c-0.323,0.348-0.484,0.819-0.484,1.414
		v1.042h21.583v9.824H247.454z M247.454,46.443h30.662v9.898h-21.583v0.967c0,0.596,0.161,1.068,0.484,1.414
		c0.322,0.348,0.632,0.521,0.93,0.521h25.824v9.898h-26.047c-1.737,0-3.25-0.347-4.54-1.042c-1.291-0.694-2.357-1.587-3.2-2.679
		c-0.844-1.091-1.477-2.319-1.897-3.684c-0.422-1.364-0.633-2.691-0.633-3.981V46.443z"/>
	<path fill="#256DFD" d="M311.382,18.609c-2.035,0-3.883,0.348-5.544,1.042c-1.663,0.695-3.077,1.663-4.242,2.902
		c-1.167,1.241-2.072,2.716-2.716,4.428c-0.646,1.711-0.968,3.585-0.968,5.619c0,2.134,0.372,3.995,1.116,5.582
		c0.745,1.588,1.699,2.952,2.865,4.093c1.166,1.142,2.468,2.047,3.907,2.717c1.438,0.669,2.853,1.129,4.242,1.376
		c1.34,0.249,2.802,0.584,4.391,1.005c1.587,0.422,3.051,1.042,4.391,1.86c1.34,0.819,2.456,1.923,3.349,3.312
		c0.894,1.39,1.34,3.151,1.34,5.284c0,1.886-0.298,3.535-0.894,4.949c-0.595,1.414-1.414,2.593-2.455,3.535
		c-1.042,0.943-2.246,1.65-3.61,2.121c-1.365,0.472-2.816,0.707-4.354,0.707h-25.229v-9.898h24.336c0.396,0,0.707-0.136,0.93-0.409
		c0.224-0.272,0.335-0.558,0.335-0.856c0-0.694-0.297-1.165-0.893-1.414c-0.149-0.049-0.744-0.173-1.786-0.372
		c-1.042-0.198-2.221-0.446-3.535-0.744c-1.315-0.298-2.617-0.632-3.907-1.005c-1.291-0.372-2.283-0.756-2.977-1.153
		c-1.439-0.793-2.854-1.786-4.242-2.977c-1.39-1.19-2.618-2.616-3.684-4.279c-1.068-1.662-1.923-3.597-2.568-5.805
		c-0.645-2.207-0.967-4.75-0.967-7.628c0-3.323,0.607-6.449,1.823-9.377c1.215-2.927,2.865-5.458,4.949-7.591
		c2.083-2.132,4.551-3.82,7.405-5.061c2.853-1.24,5.917-1.86,9.191-1.86h24.633v9.898H311.382z M311.754,31.261
		c-0.398,0-0.707,0.125-0.931,0.372c-0.223,0.249-0.334,0.546-0.334,0.893c0,0.298,0.074,0.583,0.223,0.856
		c0.149,0.273,0.372,0.435,0.67,0.483c0.148,0.05,0.731,0.186,1.749,0.41c1.017,0.223,2.17,0.483,3.461,0.781
		c1.29,0.298,2.592,0.633,3.907,1.005c1.313,0.372,2.318,0.732,3.014,1.079c1.488,0.844,2.951,1.86,4.391,3.051
		c1.438,1.19,2.729,2.618,3.87,4.279c1.141,1.663,2.059,3.598,2.754,5.805c0.694,2.208,1.042,4.726,1.042,7.554
		c0,3.375-0.608,6.512-1.823,9.415c-1.217,2.902-2.865,5.421-4.949,7.554c-2.084,2.134-4.553,3.821-7.405,5.061
		c-2.854,1.241-5.917,1.86-9.191,1.86h-25.229v-9.898h25.229c2.084,0,3.981-0.347,5.693-1.042c1.712-0.694,3.187-1.662,4.428-2.902
		c1.239-1.24,2.195-2.717,2.865-4.428c0.669-1.712,1.004-3.584,1.004-5.619c0-2.579-0.472-4.688-1.414-6.326
		s-2.109-2.939-3.497-3.907c-1.39-0.967-2.891-1.686-4.502-2.158c-1.613-0.471-3.089-0.856-4.428-1.153
		c-1.488-0.298-2.94-0.707-4.354-1.228c-1.414-0.521-2.668-1.228-3.758-2.121c-1.092-0.893-1.972-2.009-2.642-3.349
		c-0.67-1.339-1.005-3.001-1.005-4.986c0-1.885,0.272-3.535,0.819-4.949c0.545-1.414,1.302-2.592,2.27-3.535
		c0.968-0.942,2.108-1.649,3.424-2.121c1.314-0.471,2.741-0.707,4.279-0.707h24.633v9.898L311.754,31.261z"/>
	<path fill="#256DFD" d="M359.459,81.719c-3.572,0-6.649-0.421-9.229-1.265c-2.58-0.843-4.726-2.17-6.438-3.981
		c-1.712-1.811-2.978-4.142-3.796-6.996c-0.818-2.853-1.228-6.263-1.228-10.233V31.186c0-4.118,0.409-7.603,1.228-10.456
		c0.818-2.853,2.084-5.172,3.796-6.958s3.857-3.076,6.438-3.87c2.579-0.793,5.656-1.19,9.229-1.19h9.525
		c3.621,0,6.734,0.397,9.34,1.19c2.605,0.794,4.75,2.084,6.438,3.87c1.686,1.786,2.928,4.106,3.721,6.958
		c0.793,2.854,1.191,6.338,1.191,10.456v28.057c0,3.97-0.398,7.381-1.191,10.233c-0.793,2.854-2.035,5.185-3.721,6.996
		c-1.688,1.812-3.832,3.138-6.438,3.981c-2.605,0.844-5.719,1.265-9.34,1.265H359.459z M370.025,71.821
		c1.887,0,3.473-0.261,4.764-0.782c1.289-0.521,2.344-1.252,3.164-2.195c0.818-0.942,1.414-2.058,1.785-3.349
		c0.373-1.29,0.559-2.679,0.559-4.167V29.103c0-1.489-0.186-2.877-0.559-4.168c-0.371-1.29-0.967-2.406-1.785-3.349
		c-0.82-0.942-1.887-1.675-3.201-2.196s-2.916-0.781-4.801-0.781H358.49c-1.885,0-3.486,0.26-4.8,0.781
		c-1.314,0.521-2.381,1.254-3.199,2.196c-0.819,0.943-1.414,2.059-1.786,3.349c-0.373,1.291-0.559,2.679-0.559,4.168v32.225
		c0,1.488,0.186,2.878,0.559,4.167c0.372,1.291,0.967,2.407,1.786,3.349c0.818,0.943,1.872,1.674,3.162,2.195
		s2.878,0.782,4.763,0.782h5.805H370.025z M359.385,69.142c-1.738,0-3.164-0.161-4.279-0.484c-1.117-0.322-1.985-0.856-2.605-1.6
		c-0.621-0.744-1.055-1.699-1.302-2.865c-0.249-1.165-0.373-2.616-0.373-4.354V30.591c0-1.29,0.124-2.505,0.373-3.646
		c0.247-1.141,0.693-2.133,1.339-2.977c0.645-0.843,1.526-1.5,2.643-1.972c1.115-0.471,2.541-0.707,4.279-0.707h4.762h4.764
		c1.736,0,3.162,0.236,4.279,0.707c1.117,0.472,1.996,1.129,2.643,1.972c0.645,0.844,1.09,1.836,1.34,2.977
		c0.246,1.142,0.371,2.357,0.371,3.646v29.248c0,1.737-0.125,3.188-0.371,4.354c-0.25,1.167-0.684,2.121-1.303,2.865
		c-0.621,0.744-1.488,1.278-2.605,1.6c-1.115,0.323-2.543,0.484-4.279,0.484H359.385z M366.604,59.243
		c0.596,0,0.979-0.173,1.152-0.521c0.174-0.346,0.262-0.818,0.262-1.414V33.121c0-0.595-0.088-1.066-0.262-1.414
		c-0.174-0.346-0.557-0.521-1.152-0.521h-4.764c-0.596,0-0.98,0.175-1.154,0.521c-0.174,0.348-0.26,0.819-0.26,1.414v24.187
		c0,0.596,0.086,1.068,0.26,1.414c0.174,0.348,0.559,0.521,1.154,0.521H366.604z"/>
	<path fill="#256DFD" d="M435.07,49.047l-10.643-28.503c-0.198-0.496-0.621-0.942-1.265-1.34c-0.646-0.396-1.365-0.595-2.158-0.595
		c-0.695,0-1.414,0.199-2.158,0.595c-0.744,0.398-1.191,0.844-1.34,1.34l-21.434,61.175h-9.898l22.997-64.896
		c0.396-1.042,0.917-2.046,1.562-3.014c0.645-0.967,1.451-1.835,2.419-2.604c0.967-0.769,2.095-1.377,3.386-1.824
		c1.29-0.446,2.778-0.669,4.466-0.669c1.686,0,3.149,0.223,4.391,0.669c1.239,0.447,2.331,1.055,3.274,1.824
		c0.942,0.77,1.749,1.637,2.419,2.604c0.67,0.968,1.252,1.972,1.749,3.014l2.232,4.465l2.232-4.465
		c0.546-1.042,1.153-2.046,1.823-3.014c0.67-0.967,1.463-1.835,2.382-2.604c0.918-0.769,1.997-1.377,3.237-1.824
		c1.239-0.446,2.704-0.669,4.391-0.669c1.638,0,3.113,0.223,4.429,0.669c1.313,0.447,2.456,1.055,3.423,1.824
		c0.968,0.77,1.786,1.637,2.456,2.604c0.67,0.968,1.178,1.972,1.525,3.014l22.997,64.896h-9.898l-21.434-61.175
		c-0.148-0.496-0.596-0.942-1.34-1.34c-0.744-0.396-1.464-0.595-2.158-0.595c-0.794,0-1.514,0.199-2.158,0.595
		c-0.646,0.398-1.067,0.844-1.265,1.34L435.07,49.047z M435.07,81.719L421.005,44.21L408.65,81.719h-9.898l20.392-59.314
		c0.1-0.297,0.347-0.558,0.745-0.781c0.396-0.223,0.769-0.335,1.116-0.335c0.347,0,0.707,0.112,1.079,0.335s0.606,0.484,0.707,0.781
		l12.279,33.862l12.279-33.862c0.1-0.297,0.335-0.558,0.707-0.781s0.731-0.335,1.079-0.335c0.347,0,0.719,0.112,1.116,0.335
		s0.645,0.484,0.745,0.781l20.392,59.314h-9.526L449.136,44.21L435.07,81.719z"/>
	<path fill="#256DFD" d="M480.021,31.186c0-3.125,0.569-6.065,1.712-8.819c1.141-2.753,2.666-5.135,4.577-7.145
		c1.909-2.009,4.117-3.597,6.623-4.763c2.505-1.165,5.098-1.749,7.777-1.749h28.206v9.898H501.9c-1.886,0-3.572,0.372-5.061,1.116
		s-2.742,1.712-3.758,2.903c-1.018,1.19-1.8,2.543-2.345,4.056c-0.547,1.514-0.818,3.014-0.818,4.502v28.057
		c0,1.489,0.271,2.99,0.818,4.502c0.545,1.514,1.327,2.866,2.345,4.056c1.016,1.191,2.27,2.158,3.758,2.902
		c1.488,0.745,3.175,1.117,5.061,1.117h27.016v9.898H500.71c-2.68,0-5.272-0.583-7.777-1.749c-2.506-1.165-4.714-2.753-6.623-4.763
		c-1.911-2.01-3.437-4.391-4.577-7.145c-1.143-2.754-1.712-5.693-1.712-8.819V31.186z M492.598,43.987V32.675
		c0-1.29,0.211-2.617,0.633-3.982c0.421-1.364,1.054-2.592,1.897-3.684c0.844-1.091,1.909-1.984,3.2-2.679
		c1.29-0.694,2.803-1.042,4.54-1.042h26.048v9.898h-25.824c-0.298,0-0.608,0.175-0.931,0.521c-0.323,0.348-0.483,0.819-0.483,1.414
		v1.042h21.582v9.824H492.598z M492.598,46.443h30.662v9.898h-21.582v0.967c0,0.596,0.16,1.068,0.483,1.414
		c0.322,0.348,0.633,0.521,0.931,0.521h25.824v9.898h-26.048c-1.737,0-3.25-0.347-4.54-1.042c-1.291-0.694-2.356-1.587-3.2-2.679
		c-0.844-1.091-1.477-2.319-1.897-3.684c-0.422-1.364-0.633-2.691-0.633-3.981V46.443z"/>
</g>
<g>
	<path fill="#256DFD" d="M539.868,8.711v1.148h-3.247v8.487h-1.318V9.859h-3.247V8.711H539.868z"/>
	<path fill="#256DFD" d="M541.036,8.711h1.87l2.771,8.146l2.75-8.146h1.857v9.635h-1.246v-5.687c0-0.197,0.004-0.523,0.013-0.977
		s0.013-0.942,0.013-1.463l-2.751,8.127h-1.293l-2.777-8.127v0.295c0,0.236,0.007,0.596,0.02,1.079
		c0.013,0.483,0.02,0.838,0.02,1.066v5.687h-1.246V8.711z"/>
</g>
</svg>
